# xmcd CD database file
#
# Track frame offsets:
#	150
#	20025
#	43350
#	58050
#	81450
#	108150
#	131550
#	158325
#	175350
#	196950
#	217350
#	231000
#	253350
#
# Disc length: 3789 seconds
#
# Revision: 0
# Processed by: cddbd v1.5.2PL0 Copyright (c) Steve Scherf et al.
# Submitted via: CDex 1.51
#
DISCID=c20ecb0d
DTITLE=Ten Foot Polecats - I Get Blamed For Everything I Do
DYEAR=2010
DGENRE=Blues
TTITLE0=Chicken Headed Man
TTITLE1=So Good To Me
TTITLE2=Tears On My Windshield
TTITLE3=Big Road
TTITLE4=Scratch Ticket
TTITLE5=Dryspell
TTITLE6=Brokenhearted
TTITLE7=I'm Goin' Crazy
TTITLE8=Couple More Miles
TTITLE9=Squeeze
TTITLE10=Bar Hoppin'
TTITLE11=Peavine
TTITLE12=See What My Buddy Done
EXTD=YEAR: 2010
EXTT0=
EXTT1=
EXTT2=
EXTT3=
EXTT4=
EXTT5=
EXTT6=
EXTT7=
EXTT8=
EXTT9=
EXTT10=
EXTT11=
EXTT12=
PLAYORDER=
